# xmcd
#
# Track frame offsets:
#	183
#	10633
#	22158
#	34915
#	45868
#	57460
#	69610
#	77793
#	87790
#	98113
#
# Disc length: 1480
#
# Revision: 2
# Processed by: cddbd v1.5.1PL0 Copyright (c) Steve Scherf et al.
# Submitted via: CDex 1.51
# Normalized: r0:TDELIM( - ),TSWAP
#
DISCID=7505c60a
DTITLE=Various Artist - Country Stars Volume 7
DYEAR=1900
DGENRE=Country
TTITLE0=Freddy Fender - Before The Next Teardrop Falls
TTITLE1=Kenny Rogers - Me Adn Bobby McGee
TTITLE2=Ray Pillow - One Too Many Memories
TTITLE3=Patsy Cline - I Cried All The Way To The Alter
TTITLE4=Willie Nelson - Some Other Time
TTITLE5=Billy Joel Royal - Down In The Boondocks
TTITLE6=Johnnny Cash - Guess Things Happen That Way
TTITLE7=Hank Lougalin - Please Help Me, I'M Falling
TTITLE8=Hank Wlliams Sr. - Log Train
TTITLE9=Justin Tubb - Travelin' Singin' Man
EXTD=
EXTT0=
EXTT1=
EXTT2=
EXTT3=
EXTT4=
EXTT5=
EXTT6=
EXTT7=
EXTT8=
EXTT9=
PLAYORDER=
